Coordinates
version=1
nRows=24
nColumns=19
inDegrees=yes

Units are S.I. units (second, meters, Newtons, ...)
If the header above contains a line with 'inDegrees', this indicates whether rotational values are in degrees (yes) or radians (no).

endheader
time	pelvis_tilt	pelvis_list	pelvis_rotation	pelvis_tx	pelvis_ty	pelvis_tz	hip_flexion_r	hip_adduction_r	hip_rotation_r	knee_angle_r	knee_angle_r_beta	ankle_angle_r	hip_flexion_l	hip_adduction_l	hip_rotation_l	knee_angle_l	knee_angle_l_beta	ankle_angle_l
     12.90666667	     -2.04521582	      7.27257349	      2.71030539	      2.39184341	      1.04966644	      0.99777015	    -11.80012437	    -10.48937644	    -13.43989308	     48.71069532	      0.85016201	    -16.56555126	     20.19625173	     11.30947054	     -6.67793016	     12.50361303	      0.21822922	      7.02965057
     12.91333333	     -1.06975410	      7.88695913	      2.93737671	      2.39084569	      1.04605438	      0.99704046	    -11.72772614	    -11.08437376	    -12.58840864	     52.02380791	      0.90798674	    -15.53728688	     19.61357526	     11.88986302	     -7.13255938	     14.76911262	      0.25776964	      6.60381322
     12.92000000	     -0.37072831	      8.37727773	      3.09340944	      2.38950246	      1.04176164	      0.99649484	    -11.16132566	    -11.48524028	    -11.45683253	     55.46859642	      0.96810964	    -14.54952262	     19.48591525	     12.25860479	     -7.72136111	     17.40515366	      0.30377724	      6.33665563
     12.92666667	     -0.45590974	      8.52140347	      3.26686517	      2.38784918	      1.03637202	      0.99601259	     -9.50639739	    -11.46150567	     -9.99540236	     59.08016840	      1.03114346	    -13.53046429	     20.38160430	     12.24026006	     -8.23573074	     20.45608746	      0.35702608	      6.23507102
     12.93333333	     -0.19023583	      8.82606069	      3.51368358	      2.38619705	      1.03115280	      0.99558446	     -8.29216862	    -11.60559362	     -8.91442645	     62.55865654	      1.09185453	    -12.64482602	     20.81948425	     12.40089845	     -8.57828459	     23.42293343	      0.40880731	      6.37879988
     12.94000000	      0.10234624	      9.05008445	      3.74384422	      2.38433515	      1.02583611	      0.99529832	     -7.02591793	    -11.62883114	     -7.85406197	     65.98163209	      1.15159673	    -11.79813234	     21.22976407	     12.46544783	     -8.81854832	     26.42348383	      0.46117679	      6.85160112
     12.94666667	      0.20306738	      9.24456095	      4.03874053	      2.38241714	      1.02026875	      0.99499852	     -5.51299293	    -11.66202130	     -6.95206419	     69.34190319	      1.21024452	    -11.03088555	     21.80279621	     12.53528547	     -8.91978090	     29.38806491	      0.51291849	      7.63785878
     12.95333333	      0.23948275	      9.38483382	      4.34499108	      2.38036755	      1.01468317	      0.99474504	     -3.87699233	    -11.66775165	     -6.14729934	     72.59891052	      1.26709002	    -10.33084540	     22.38737823	     12.57361718	     -8.91379302	     32.27130759	      0.56324057	      8.75231273
     12.96000000	      0.18249090	      9.50507687	      4.66556598	      2.37824403	      1.00912877	      0.99450311	     -2.09651454	    -11.70727620	     -5.44655274	     75.73710488	      1.32186185	     -9.67192209	     22.97581997	     12.62531914	     -8.82088250	     35.00467935	      0.61094691	     10.13207443
     12.96666667	      0.11287183	      9.57118929	      4.97991051	      2.37610892	      1.00375398	      0.99427279	     -0.26949786	    -11.80638321	     -4.92744061	     78.72384857	      1.37399036	     -8.95819995	     23.45148990	     12.63787273	     -8.68488809	     37.55066799	      0.65538279	     11.79035679
     12.97333333	     -0.11297129	      9.68741185	      5.31394641	      2.37386164	      0.99857958	      0.99405099	      1.77820120	    -11.90495480	     -4.29786773	     81.54074011	      1.42315439	     -8.45014355	     23.95627245	     12.78244348	     -8.37679910	     39.84043085	      0.69534669	     13.45176648
     12.98000000	     -0.30102634	      9.76157533	      5.59921019	      2.37168438	      0.99382306	      0.99382402	      3.80911002	    -12.06836338	     -3.78662159	     84.14773464	      1.46865503	     -7.84333139	     24.25154017	     12.88555626	     -8.07657177	     41.86163629	      0.73062338	     15.21530068
     12.98666667	     -0.49022575	      9.82966441	      5.85172302	      2.36954139	      0.98952202	      0.99361700	      5.86994646	    -12.26679318	     -3.29519709	     86.53773466	      1.51036840	     -7.21801147	     24.37159310	     13.00183369	     -7.73530794	     43.58802283	      0.76075451	     16.95298269
     12.99333333	     -0.64255447	      9.88520159	      6.06342053	      2.36751905	      0.98579038	      0.99335639	      7.90014283	    -12.50656266	     -2.84545055	     88.66779414	      1.54754495	     -6.62363729	     24.27872531	     13.10832936	     -7.39542155	     45.02707044	      0.78587063	     18.60041656
     13.00000000	     -0.75957640	      9.94986343	      6.21455916	      2.36564258	      0.98268306	      0.99309648	      9.90206851	    -12.78211331	     -2.38793939	     90.52958510	      1.58003933	     -6.02193368	     23.95653009	     13.22424568	     -7.05400503	     46.13771700	      0.80525507	     20.11741993
     13.00666667	     -0.42914290	      9.99609678	      6.35344462	      2.36401040	      0.98080379	      0.99276259	     11.32389265	    -13.03812207	     -2.09633497	     91.99793190	      1.60566682	     -5.38245162	     22.93542637	     13.31797585	     -6.59376838	     46.90326843	      0.81861646	     21.54163579
     13.01333333	     -0.81075917	      9.97843792	      6.32131358	      2.36240916	      0.97861964	      0.99257342	     13.69039819	    -13.21246460	     -1.45235229	     93.35853588	      1.62941384	     -4.81465951	     22.60352468	     13.31699936	     -6.38648174	     47.45403358	      0.82822913	     22.66300328
     13.02000000	     -0.53892541	      9.89438451	      6.38475858	      2.36114659	      0.97796479	      0.99215557	     15.14518737	    -13.32383179	     -1.18115391	     94.24247685	      1.64484152	     -4.22319389	     21.35249032	     13.27469902	     -5.90531821	     47.69121465	      0.83236872	     23.71777844
     13.02666667	     -0.38359382	      9.77332136	      6.35373753	      2.36007785	      0.97785310	      0.99180574	     16.71670570	    -13.36985368	     -0.84768229	     94.84008234	      1.65527170	     -3.63702410	     20.09336368	     13.18218450	     -5.47067699	     47.64759425	      0.83160740	     24.55698241
     13.03333333	     -0.32594437	      9.59483383	      6.28366234	      2.35934673	      0.97828594	      0.99140828	     18.34288411	    -13.34303969	     -0.52365955	     95.14484585	      1.66059083	     -3.06098942	     18.78642147	     13.01045592	     -5.11089841	     47.32784846	      0.82602678	     25.23392547
     13.04000000	     -0.33150709	      9.36599196	      6.14559352	      2.35877604	      0.97928993	      0.99105313	     19.98613021	    -13.23819551	     -0.21920215	     95.14987608	      1.66067862	     -2.50134416	     17.45006557	     12.78008412	     -4.79233694	     46.77975757	      0.81646079	     25.75829788
     13.04666667	     -0.43045450	      9.04298456	      6.01723388	      2.35854305	      0.98082010	      0.99066611	     21.61665058	    -13.04492348	     -0.03410504	     94.82579248	      1.65502229	     -1.95945889	     16.09751593	     12.45447581	     -4.47336129	     46.02365699	      0.80326435	     26.12341990
     13.05333333	     -0.34357630	      8.89795074	      5.45758318	      2.35840013	      0.98297684	      0.99081303	     23.11599723	    -12.78168391	      0.60301830	     94.31921158	      1.64618079	     -1.38220491	     14.41541134	     12.21954687	     -4.51422294	     44.90262625	      0.78369867	     26.45563593
     13.06000000	     -0.59581365	      8.41569028	      5.32706820	      2.35858474	      0.98545728	      0.99046081	     24.69099732	    -12.34826871	      0.62392038	     93.41525870	      1.63040384	     -0.83259678	     13.03459679	     11.79648276	     -4.03925596	     43.73688984	      0.76335273	     26.54381204
